<?xml version="1.0" encoding="UTF-8"?>
<svg version="1.1" xmlns="http://www.w3.org/2000/svg" width="29" height="36">
<path d="M0 0 C9.57 0 19.14 0 29 0 C29 11.88 29 23.76 29 36 C19.43 36 9.86 36 0 36 C0 24.12 0 12.24 0 0 Z " fill="#FBFBFA" transform="translate(0,0)"/>
<path d="M0 0 C6.93 0 13.86 0 21 0 C21 1.32 21 2.64 21 4 C18.75487738 5.12256131 17.48543351 5.13413762 15 5.125 C13.948125 5.12886719 13.948125 5.12886719 12.875 5.1328125 C11 5 11 5 9 4 C9.185625 5.093125 9.37125 6.18625 9.5625 7.3125 C10 11 10 11 9 14 C8.61637228 16.56218514 8.26139695 19.11791753 7.9375 21.6875 C7.80118164 22.7403418 7.80118164 22.7403418 7.66210938 23.81445312 C7.43874006 25.54262623 7.21901504 27.27126967 7 29 C8.32 29.66 9.64 30.32 11 31 C10.34 31.66 9.68 32.32 9 33 C9.33 33.99 9.66 34.98 10 36 C6.7 36 3.4 36 0 36 C0 24.12 0 12.24 0 0 Z M12 2 C11.67 2.66 11.34 3.32 11 4 C11.66 4 12.32 4 13 4 C12.67 3.34 12.34 2.68 12 2 Z " fill="#FAFCFA" transform="translate(0,0)"/>
<path d="M0 0 C1.98 0 3.96 0 6 0 C7.75747614 4.50353262 8.19294408 8.17639811 8 13 C3.25 12.125 3.25 12.125 1 11 C1 11.99 1 12.98 1 14 C0.34 14 -0.32 14 -1 14 C-1 14.99 -1 15.98 -1 17 C1.97 17 4.94 17 8 17 C8.33 17.99 8.66 18.98 9 20 C5.37 20 1.74 20 -2 20 C-2 20.99 -2 21.98 -2 23 C-2.99 23 -3.98 23 -5 23 C-5.23492361 17.24437157 -4.99636642 12.43455304 -3 7 C-2.34 6.34 -1.68 5.68 -1 5 C-0.35232207 2.42938689 -0.35232207 2.42938689 0 0 Z " fill="#7E99A9" transform="translate(12,6)"/>
<path d="M0 0 C3.63 0 7.26 0 11 0 C10.67 0.66 10.34 1.32 10 2 C9.01 2 8.02 2 7 2 C7 4.64 7 7.28 7 10 C4.69 10 2.38 10 0 10 C0 9.34 0 8.68 0 8 C-0.66 7.67 -1.32 7.34 -2 7 C-1.34 6.34 -0.68 5.68 0 5 C-0.33 4.34 -0.66 3.68 -1 3 C-0.67 2.01 -0.34 1.02 0 0 Z " fill="#DBE6EA" transform="translate(10,26)"/>
<path d="M0 0 C0.33 0 0.66 0 1 0 C1 1.65 1 3.3 1 5 C1.99 5 2.98 5 4 5 C3.67 3.68 3.34 2.36 3 1 C3.99 1.33 4.98 1.66 6 2 C5.67 3.32 5.34 4.64 5 6 C4.34 6 3.68 6 3 6 C3 6.99 3 7.98 3 9 C5.97 9 8.94 9 12 9 C12.33 9.99 12.66 10.98 13 12 C9.37 12 5.74 12 2 12 C2 12.99 2 13.98 2 15 C1.01 15 0.02 15 -1 15 C-1.10251672 9.87416389 -1.03590199 5.05002222 0 0 Z " fill="#939292" transform="translate(8,14)"/>
<path d="M0 0 C0.33 0.66 0.66 1.32 1 2 C0.34 1.67 -0.32 1.34 -1 1 C-0.67 0.67 -0.34 0.34 0 0 Z M-3 2 C0.96 2 4.92 2 9 2 C9 3.98 9 5.96 9 8 C9.66 7.34 10.32 6.68 11 6 C11.24042276 10.08718695 10.42258812 13.17679443 9 17 C8.67 17 8.34 17 8 17 C8 14.69 8 12.38 8 10 C7.34 9.67 6.68 9.34 6 9 C6 7.68 6 6.36 6 5 C4.02 5 2.04 5 0 5 C0 6.65 0 8.3 0 10 C-0.99 10.33 -1.98 10.66 -3 11 C-3.33 10.34 -3.66 9.68 -4 9 C-3.34 9 -2.68 9 -2 9 C-2.33 6.69 -2.66 4.38 -3 2 Z " fill="#D4EDF2" transform="translate(12,2)"/>
<path d="M0 0 C2.0625 0.6875 2.0625 0.6875 5.0625 2.6875 C5.3925 1.6975 5.7225 0.7075 6.0625 -0.3125 C6.0625 1.6675 6.0625 3.6475 6.0625 5.6875 C2.70654172 5.08822174 0.68448774 3.84127564 -1.9375 1.6875 C-1.6075 3.0075 -1.2775 4.3275 -0.9375 5.6875 C-1.9275 5.6875 -2.9175 5.6875 -3.9375 5.6875 C-3.9375 4.0375 -3.9375 2.3875 -3.9375 0.6875 C-1.9375 -0.3125 -1.9375 -0.3125 0 0 Z " fill="#444648" transform="translate(12.9375,13.3125)"/>
<path d="M0 0 C2.31 0.66 4.62 1.32 7 2 C6.67 3.32 6.34 4.64 6 6 C3.36 6 0.72 6 -2 6 C-2 5.01 -2 4.02 -2 3 C-1.34 3 -0.68 3 0 3 C0 2.01 0 1.02 0 0 Z " fill="#F3F2F1" transform="translate(13,17)"/>
<path d="M0 0 C1.65 0 3.3 0 5 0 C6.125 3.75 6.125 3.75 5 6 C2.03 5.505 2.03 5.505 -1 5 C-0.67 3.35 -0.34 1.7 0 0 Z " fill="#2675A8" transform="translate(12,6)"/>
<path d="M0 0 C0.66 0 1.32 0 2 0 C2 2.31 2 4.62 2 7 C1.01 7 0.02 7 -1 7 C-1.04254356 5.00045254 -1.04080783 2.99958364 -1 1 C-0.67 0.67 -0.34 0.34 0 0 Z " fill="#A1B8C9" transform="translate(15,29)"/>
<path d="M0 0 C0.33 0 0.66 0 1 0 C1.24042276 4.08718695 0.42258812 7.17679443 -1 11 C-1.33 11 -1.66 11 -2 11 C-2 8.69 -2 6.38 -2 4 C-2.66 3.67 -3.32 3.34 -4 3 C-3.01 2.67 -2.02 2.34 -1 2 C-0.67 1.34 -0.34 0.68 0 0 Z " fill="#DFE9EB" transform="translate(22,8)"/>
<path d="M0 0 C-0.33 2.31 -0.66 4.62 -1 7 C-1.309375 6.0409375 -1.309375 6.0409375 -1.625 5.0625 C-2.89538209 2.65074923 -2.89538209 2.65074923 -6.125 2.25 C-7.07375 2.1675 -8.0225 2.085 -9 2 C-9 1.67 -9 1.34 -9 1 C-2.25 0 -2.25 0 0 0 Z " fill="#BEDFE9" transform="translate(21,4)"/>
</svg>
